<?xml version="1.0" encoding="UTF-8"?>
<svg xmlns="http://www.w3.org/2000/svg" baseProfile="tiny" version="1.2" viewBox="0 0 2000 2000">
  <!-- Generator: Adobe Illustrator 28.7.2, SVG Export Plug-In . SVG Version: 1.2.0 Build 154)  -->
  <g>
    <g id="Layer_1">
      <circle cx="1009" cy="1005" r="968" fill="#fff"/>
      <path d="M359,1015.95c0-85.93,12.31-166.13,36.94-240.61,24.63-74.47,66.6-143.35,125.91-206.66,59.28-63.29,130.76-112.26,214.4-146.93,83.64-34.67,178.16-52,283.57-52,195.33,0,350.88,53.15,466.6,159.41,115.72,106.28,173.58,251.37,173.58,435.24,0,129.47-28.37,245.76-85.08,348.88-56.71,103.12-137.91,183.32-243.6,240.61-105.71,57.29-224.42,85.93-356.18,85.93-93.4,0-179.33-15.62-257.82-46.83-78.48-31.21-145.36-77.76-200.63-139.63-55.29-61.87-95.39-133.48-120.3-214.83-24.93-81.35-37.39-155.53-37.39-222.57ZM537.74,959.24c0,69.89,11.31,145.09,33.95,225.59,22.62,80.5,56.42,149.52,101.4,207.08,44.96,57.58,96.79,100.4,155.53,128.47,58.73,28.07,125.61,42.1,200.65,42.1,88.8,0,167.85-20.33,237.17-61,69.32-40.67,122.02-103.84,158.11-189.47,36.09-85.63,54.15-181.75,54.15-288.3,0-115.72-20.62-220.26-61.87-313.64-41.25-93.38-99.98-161.28-176.17-203.67-76.19-42.39-160.68-63.59-253.49-63.59-139.23,0-248.92,43.54-329.13,130.62-80.2,87.08-120.3,215.7-120.3,385.82Z"/>
    </g>
  </g>
</svg>